<svg xmlns="http://www.w3.org/2000/svg" width="394.997" height="395" viewBox="0 0 394.997 395">
  <path id="facebook" d="M341.771,0H53.229A53.227,53.227,0,0,0,0,53.227V341.771A53.227,53.227,0,0,0,53.229,395H195.537l.243-141.151H159.108a8.652,8.652,0,0,1-8.652-8.619l-.176-45.5a8.653,8.653,0,0,1,8.653-8.686h36.6V147.08c0-51.019,31.159-78.8,76.672-78.8h37.346a8.653,8.653,0,0,1,8.653,8.653V115.3a8.653,8.653,0,0,1-8.648,8.653l-22.919.011c-24.751,0-29.544,11.761-29.544,29.022v38.06h54.387a8.652,8.652,0,0,1,8.592,9.671l-5.393,45.5a8.653,8.653,0,0,1-8.592,7.635H257.34L257.1,395h84.675A53.226,53.226,0,0,0,395,341.774V53.227A53.228,53.228,0,0,0,341.771,0Z" transform="translate(-0.002)" fill="#8fb1ce"/>
</svg>
