<svg xmlns="http://www.w3.org/2000/svg" width="419.038" height="408.788" viewBox="0 0 419.038 408.788">
  <g id="github" transform="translate(0 -5.365)">
    <path id="Path_12" data-name="Path 12" d="M390.933,109.715a208.607,208.607,0,0,0-76.248-76.25q-48.155-28.1-105.167-28.1T104.35,33.465a208.583,208.583,0,0,0-76.25,76.25Q0,157.866,0,214.877q0,68.482,39.966,123.172t103.256,75.7q7.367,1.367,10.911-1.907a10.669,10.669,0,0,0,3.546-8.181q0-.818-.138-14.731t-.138-24.276l-6.275,1.085a80.045,80.045,0,0,1-15.141.956,115.36,115.36,0,0,1-18.959-1.91,42.366,42.366,0,0,1-18.279-8.178,34.614,34.614,0,0,1-12-16.775l-2.728-6.278a68.169,68.169,0,0,0-8.592-13.911Q69.562,312,63.562,309.279l-1.91-1.367a20.028,20.028,0,0,1-3.546-3.276,14.966,14.966,0,0,1-2.454-3.819q-.82-1.913,1.364-3.143c1.457-.821,4.091-1.219,7.912-1.219l5.454.815q5.456,1.094,13.5,6.546A44.031,44.031,0,0,1,97.116,318q6.278,11.188,15.141,17.053t17.867,5.863a77.582,77.582,0,0,0,15.55-1.36,54.259,54.259,0,0,0,12.276-4.094q2.455-18.286,13.366-28.1a186.8,186.8,0,0,1-27.962-4.911A111.338,111.338,0,0,1,117.712,291.8,73.443,73.443,0,0,1,95.75,273.526q-8.729-10.913-14.32-28.645T75.838,203.96q0-33.016,21.554-56.2Q87.3,122.938,99.3,92.11q7.912-2.458,23.462,3.682t22.78,10.5q7.232,4.359,11.6,7.365a197.024,197.024,0,0,1,104.764,0l10.366-6.544A146.821,146.821,0,0,1,297.36,95.111q14.459-5.454,22.1-3,12.272,30.828,2.178,55.649,21.551,23.19,21.556,56.2,0,23.188-5.593,41.055t-14.452,28.645a76.267,76.267,0,0,1-22.1,18.141A111.549,111.549,0,0,1,275.4,302.445a186.6,186.6,0,0,1-27.961,4.917q14.181,12.272,14.182,38.736v57.557a10.867,10.867,0,0,0,3.413,8.181q3.41,3.266,10.774,1.906,63.3-21,103.261-75.7t39.965-123.172Q419.024,157.866,390.933,109.715Z" fill="#8fb1ce"/>
  </g>
</svg>
